#!OML:ASF E:/inclinewalkrobotboard/Project1/Captureday1/Session1/subject1.ASF
:FULLY-SPECIFIED
:DEGREES
26
root 0 0 0 -4.255404952989088 -5.780201683574978 -3.563697310336389
lowerback 9.825455458850678 1.7571168093750007 2.9045028010543668
upperback -0.07814241273254355 2.728246587989827 1.1512408971552277
thorax -5.515455627170924 1.2879414609002073 -0.768108891782204
lowerneck -18.071433576747456 -3.1339583353851994 -1.7004593717229475
upperneck 18.903102433625563 -4.086593531430971 0.5211245172479735
head 8.94281740655999 -1.9514738966851959 -0.08330691406895652
rclavicle -1.5281598080622859E-15 1.7455192292936746E-15
rhumerus -31.77793964825164 -21.521932302432305 -81.29556433700051
rradius 23.999725807943022
rwrist 11.134903158487496
rhand -19.983761307437405 26.725166191246707
rfingers 7.125019999999999
rthumb 6.381706947168903 -3.3512733359774955
lclavicle -5.357922682658338E-15 8.467442903204123E-16
lhumerus -35.52978641589461 5.763812557359897 82.23690221570462
lradius 20.23908422310276
lwrist 2.2185769972937464
lhand -27.270246914388682 27.464435223779905
lfingers 7.12502000000005
lthumb -0.6822434793123948 57.40263153017696
rfemur -9.013632615491222 2.105251419288614 24.454781104260647
rtibia 59.734748128120856
rfoot 4.07393348413625 -2.2066479489300876
rtoes 11.16892912553763
lfemur -17.37849438371964 -4.0478366994413 -18.33434482202829
ltibia 24.473955706519636
lfoot -6.301045129713637 0.15627505326718572
ltoes 5.124095310876648
27
root 0 0 0 -5.7389236586368515 -4.50642479885319 0.42902929847836857
lowerback 10.545922783435417 0.8086524858840921 -1.02869000155978
upperback 0.23886523837785217 1.0018167479681497 0.7292953693098243
thorax -5.634939467357265 0.5231927860207749 1.2667070107656677
lowerneck -18.427689273188896 -2.9338680040774827 -1.9186712656188796
upperneck 19.04351408663564 -3.763871830313469 0.480476468942276
head 9.092692334746157 -1.7997421756855843 -0.02791293111195675
rclavicle -1.1359351619098653E-15 2.3463493428526915E-15
rhumerus -32.35768200385289 -23.63442054314315 -80.60393589401212
rradius 22.6048039379711
rwrist 11.013653658465753
rhand -19.728802343185773 25.819310995441164
rfingers 7.125020000000004
rthumb 6.627515615765943 -4.249527816466788
lclavicle -4.796639278207449E-15 1.8022683555983197E-15
lhumerus -34.702322337845494 5.069582736156101 81.91921244341793
lradius 21.004222014914127
lwrist 2.677407168676725
lhand -27.52268901595837 27.46377682632662
lfingers 7.125020000000046
lthumb -0.927564766613413 57.428853262740745
rfemur -19.73960139090554 -0.023985571684876916 18.497712260457888
rtibia 61.797417785203635
rfoot 5.587449016645893 -4.1769362514280015
rtoes 10.645022544405688
lfemur -2.306668243357011 -4.6390249848400655 -24.583348288361734
ltibia 21.610042099224117
lfoot -13.014331860088186 0.2997835919195331
ltoes 0.7857166003707796
28
root 0 0 0 -5.1223591247272875 -3.105940563452986 2.0357269379284184
lowerback 9.507983345882733 0.18620357665360865 -2.6476855811896334
upperback 0.23915151093011316 -0.0395350529066405 0.7536267765727442
thorax -5.055942155515395 0.05913109730684407 2.359129627016898
lowerneck -18.48000771488187 -2.6760914524140165 -2.462243810709194
upperneck 22.93219198893107 -3.4315398365827408 0.6364346529419734
head 10.359676806496918 -1.623154442096267 0.11511613616079991
rclavicle -2.5166107108332043E-16 3.106755303982519E-15
rhumerus -32.54638809991694 -23.859875294301546 -80.53525558457414
rradius 22.21434698313044
rwrist 10.894767656101905
rhand -19.56498190487806 25.616803314587386
rfingers 7.125020000000007
rthumb 6.785888583229024 -4.424648509653892
lclavicle -3.1434481455904204E-15 3.1387556443623122E-15
lhumerus -32.547474283039115 2.870375343397417 82.00836918442697
lradius 23.35230357125972
lwrist 3.9957126749459713
lhand -27.894384777073633 27.014106761645596
lfingers 7.125020000000041
lthumb -1.288514941188339 57.02029174115811
rfemur -22.649945181303593 -0.6138790942526899 16.4841376519758
rtibia 59.80967049552012
rfoot 4.4435640393048 -4.910355071126476
rtoes 8.653789891311822
lfemur 3.5603800549056492 -5.21171889737324 -26.926359516681494
ltibia 19.427675346320996
lfoot -16.405750063400525 1.0863481595868683
ltoes -0.5089108500253019
29
root 0 0 0 -3.539877949519622 -1.8655029540353516 2.584827428482875
lowerback 9.596006283912583 -0.47863569780279913 -3.3649491504715376
upperback 0.3704474867079049 -1.0002111669134843 0.9470356411831445
thorax -4.932489194797637 -0.4016457154959363 3.064953750280073
lowerneck -17.74678808805097 -2.4401557302347405 -2.5170581783959993
upperneck 20.952016433245245 -2.8858109575371707 0.23976860501555386
head 9.412303111323654 -1.462393859329048 0.07968580112732168
rclavicle 3.940500828654789E-16 3.3336403786195437E-15
rhumerus -33.01462037226121 -23.73312031063121 -80.696023674536
rradius 21.54717945962482
rwrist 10.451761808714497
rhand -19.415367901163723 25.773990112618215
rfingers 7.125020000000009
rthumb 6.9323778163558964 -4.237468314981946
lclavicle -3.1272191828587E-16 3.9262172781203115E-15
lhumerus -29.68916323220998 -0.7759347588366242 82.2773650724305
lradius 27.52816094818445
lwrist 6.301014551827418
lhand -28.245603051774886 26.283695955841207
lfingers 7.125020000000035
lthumb -1.6258598297422129 56.322153550071135
rfemur -25.367427251616185 -0.1790984604787127 16.465176007126278
rtibia 55.967452148416854
rfoot 2.4044309248737292 -6.0845051447649094
rtoes 6.569362004944746
lfemur 6.122633612551398 -5.49884170081091 -27.929645733849597
ltibia 18.200786089616606
lfoot -16.93459129014145 0.8900448849622862
ltoes 0.055349149435656386
30
root 0 0 0 -2.3804540341915814 -1.0124157146124597 2.582056428876984
lowerback 9.663427707758714 -0.9041083694555389 -3.776839739613405
upperback 0.06293706925519643 -1.584387171849434 1.1329081912713668
thorax -5.262685755982803 -0.6893842140113671 3.536901581937468
lowerneck -17.89615026365879 -2.3994398918326767 -2.3902720281757466
upperneck 19.461623617118015 -2.699630106800354 -0.2137614307209892
head 8.944953234257705 -1.4321158970434387 -0.057222420058189394
rclavicle 1.6250357410673423E-15 2.626343107388604E-15
rhumerus -33.220342019834256 -24.487830425554304 -80.37971073380794
rradius 21.306334259033527
rwrist 10.020384360536813
rhand -19.52747563537389 25.59851261903038
rfingers 7.125020000000009
rthumb 6.824069690530715 -4.4366085032084825
lclavicle 3.933942775458075E-15 3.4292576124797394E-15
lhumerus -27.77923189543863 -3.6665760985774116 82.64659991417241
lradius 30.795640825810267
lwrist 8.000262685490018
lhand -28.295288502961576 25.566020919667192
lfingers 7.125020000000029
lthumb -1.6830710438398508 55.58994905988759
rfemur -28.916721569491834 1.4576827542329271 19.058155605475623
rtibia 50.33348224973818
rfoot -1.8660436260828748 -8.27069645963631
rtoes 3.979420129628049
lfemur 8.06637080208995 -5.611902672831956 -28.33565227691998
ltibia 17.51532309649855
lfoot -16.529421840520165 0.2739970023494944
ltoes -0.29787845217808595
31
root 0 0 0 -2.167145050870184 -0.39361176254480723 2.06607701893189
lowerback 9.378060458590383 -1.1321447110404121 -3.545353150183667
upperback -0.16955531859993164 -1.8313298239560762 1.4177899911564196
thorax -5.331900246472356 -0.815101100615899 3.730750226555101
lowerneck -18.223221130990694 -2.4414216479878834 -2.366376245462739
upperneck 19.712482469447494 -2.741115650191388 -0.34297906477849627
head 9.123973109720222 -1.4599095270291327 -0.11569019691492832
rclavicle 2.599877373915005E-15 1.5433823182109497E-15
rhumerus -33.43909484459026 -26.03120065998407 -79.82374323169819
rradius 20.908540242816997
rwrist 9.635519008679598
rhand -19.71925382281071 25.1241701033045
rfingers 7.1250200000000055
rthumb 6.639130974099833 -4.95993671193386
lclavicle 6.5148309673198924E-15 2.534302641182866E-15
lhumerus -27.06949204713629 -4.893720288940906 82.828348142386
lradius 32.20182637398308
lwrist 8.714417372486915
lhand -28.272503838918816 25.124924939674354
lfingers 7.125020000000019
lthumb -1.6744566227834188 55.12524549620224
rfemur -29.738195379045106 4.066476796363531 22.04586892357698
rtibia 38.9065598531616
rfoot -7.7566950485944215 -10.823228902102615
rtoes -0.17677674678553035
lfemur 10.154205350740245 -5.798271946916611 -28.144919658752762
ltibia 17.614355162087005
lfoot -15.471777939582564 -0.6775388886375961
ltoes -2.1807478185153215
32
root 0 0 0 -2.3308471776637965 -0.006603261365654145 1.565971931158836
lowerback 9.184039232326686 -1.2562493945446604 -3.163710730953224
upperback -0.2081000463337096 -1.9353749892410523 1.6535617656123152
thorax -5.261004681823933 -0.8709762923885718 3.779563030756243
lowerneck -18.226937016319027 -2.4814553416311136 -2.380008199199094
upperneck 20.408374293457637 -2.8136757942948973 -0.35420517069955615
head 9.349460449389412 -1.4900555511701168 -0.13427887211275896
rclavicle 2.083754350405385E-15 1.319919485491337E-15
rhumerus -33.48020804856433 -26.594232321557342 -79.63637941931479
rradius 20.61321937986738
rwrist 9.857580921978201
rhand -19.68899145690564 24.966427829194124
rfingers 7.125020000000005
rthumb 6.668069632275343 -5.117576564337039
lclavicle 6.167822054266138E-15 2.4830107310745938E-15
lhumerus -27.248693433638895 -4.731704917848041 82.61035401308929
lradius 32.20963170999909
lwrist 8.726607417317041
lhand -28.29186441085038 25.174150230272236
lfingers 7.125020000000017
lthumb -1.694231314206613 55.17590951201784
rfemur -27.791711422968632 4.801467763028048 22.44541991452332
rtibia 34.24876453546961
rfoot -9.045046425846627 -10.923253238232553
rtoes -1.4219692148078587
lfemur 11.139370686530473 -5.852177368917685 -27.61614246226761
ltibia 18.738065195745072
lfoot -14.38814174904051 -1.499723443990089
ltoes -4.193862788500361
